<svg xmlns="http://www.w3.org/2000/svg" viewBox="0 0 1080 1080"><defs><style>.cls-1{fill:#eaeaea;}</style></defs><g id="Capa_5" data-name="Capa 5"><path class="cls-1" d="M127.33,572.89H110L70.59,513.42v59.47H53.21V486.11H70.59L110,545.7V486.11h17.38Z"/><path class="cls-1" d="M144.16,519.75a30.45,30.45,0,0,1,11.29-12.41,30.07,30.07,0,0,1,16-4.35,28,28,0,0,1,13.47,3.11,27.3,27.3,0,0,1,9.25,7.82v-9.81h17.5v68.78h-17.5v-10a26,26,0,0,1-9.25,8,28.19,28.19,0,0,1-13.6,3.17,29.24,29.24,0,0,1-15.83-4.47,31.24,31.24,0,0,1-11.29-12.6A40.38,40.38,0,0,1,140,538.25,39.73,39.73,0,0,1,144.16,519.75Zm47.49,7.89a17.65,17.65,0,0,0-6.71-7,17.93,17.93,0,0,0-9.06-2.42,17.45,17.45,0,0,0-15.58,9.25,21.6,21.6,0,0,0-2.55,10.74,22.3,22.3,0,0,0,2.55,10.87,18.35,18.35,0,0,0,6.7,7.14,17.07,17.07,0,0,0,8.88,2.48,17.93,17.93,0,0,0,9.06-2.42,17.62,17.62,0,0,0,6.71-7,25,25,0,0,0,0-21.73Z"/><path class="cls-1" d="M255.28,506.16A28,28,0,0,1,268.75,503a30.06,30.06,0,0,1,15.95,4.35A30.55,30.55,0,0,1,296,519.69a39.76,39.76,0,0,1,4.16,18.56A40.51,40.51,0,0,1,296,556.94a31.27,31.27,0,0,1-11.3,12.6A29.45,29.45,0,0,1,268.75,574a27.87,27.87,0,0,1-13.35-3.1,28.57,28.57,0,0,1-9.37-7.83v42.59H228.64V504.11H246V514A26.32,26.32,0,0,1,255.28,506.16Zm24.58,21.35a17.66,17.66,0,0,0-6.71-6.89,18,18,0,0,0-9-2.36,17.38,17.38,0,0,0-8.87,2.42,18,18,0,0,0-6.71,7,24.23,24.23,0,0,0,0,21.6,18,18,0,0,0,6.71,7,17.52,17.52,0,0,0,17.87-.06,18.48,18.48,0,0,0,6.71-7.08,22.29,22.29,0,0,0,2.54-10.93A21.7,21.7,0,0,0,279.86,527.51Z"/><path class="cls-1" d="M312.51,519.75a30.47,30.47,0,0,1,11.3-12.41A30.06,30.06,0,0,1,339.76,503a28,28,0,0,1,13.48,3.11,27.39,27.39,0,0,1,9.25,7.82v-9.81H380v68.78h-17.5v-10a26,26,0,0,1-9.25,8,28.24,28.24,0,0,1-13.6,3.17,29.24,29.24,0,0,1-15.83-4.47,31.27,31.27,0,0,1-11.3-12.6,40.51,40.51,0,0,1-4.16-18.69A39.86,39.86,0,0,1,312.51,519.75ZM360,527.64a17.55,17.55,0,0,0-6.7-7,18,18,0,0,0-9.07-2.42,17.45,17.45,0,0,0-15.58,9.25,21.7,21.7,0,0,0-2.54,10.74,22.41,22.41,0,0,0,2.54,10.87,18.37,18.37,0,0,0,6.71,7.14,17.06,17.06,0,0,0,8.87,2.48,18,18,0,0,0,9.07-2.42,17.53,17.53,0,0,0,6.7-7,24.95,24.95,0,0,0,0-21.73Z"/><path class="cls-1" d="M425.68,556.88l17.38-52.77h18.5l-25.45,68.78H415l-25.33-68.78H408.3Z"/><path class="cls-1" d="M472.55,493a10.2,10.2,0,0,1,0-14.53,11.44,11.44,0,0,1,15.27,0,10.2,10.2,0,0,1,0,14.53,11.44,11.44,0,0,1-15.27,0Zm16.2,11.11v68.78H471.37V504.11Z"/><path class="cls-1" d="M560.14,486.35v9.19H536.55v77.35H525.26V495.54H501.54v-9.19Z"/><path class="cls-1" d="M593.85,506.84a26.29,26.29,0,0,1,13.47-3.23v11.67h-3q-19,0-19,20.61v37h-11.3v-68h11.3v11A21.68,21.68,0,0,1,593.85,506.84Z"/><path class="cls-1" d="M680.7,504.85v68H669.4v-10a22,22,0,0,1-9,8.13,27.88,27.88,0,0,1-12.73,2.92,30.57,30.57,0,0,1-14.28-3.29,24,24,0,0,1-10-9.87q-3.66-6.59-3.66-16V504.85h11.17v38.37q0,10,5.09,15.46t13.91,5.4q9.06,0,14.27-5.59t5.22-16.26V504.85Z"/><path class="cls-1" d="M699.82,520.31a30.38,30.38,0,0,1,11.73-12.23,33.79,33.79,0,0,1,17.2-4.34q12.54,0,20.67,6.08a28.76,28.76,0,0,1,10.74,16.89H748a17.44,17.44,0,0,0-6.77-9.81,20.87,20.87,0,0,0-12.47-3.6q-9.69,0-15.65,6.64t-6,18.81q0,12.29,6,19t15.65,6.7A21.11,21.11,0,0,0,741.16,561,17.57,17.57,0,0,0,748,551h12.17a29.9,29.9,0,0,1-10.93,16.7Q741,574,728.75,574a33.79,33.79,0,0,1-17.2-4.34,30.25,30.25,0,0,1-11.73-12.3,39,39,0,0,1-4.22-18.62A38.46,38.46,0,0,1,699.82,520.31Z"/><path class="cls-1" d="M813.17,572.89l-26.69-30v30h-11.3V481h11.3v54l26.2-30.17h15.77l-32,33.9,32.16,34.14Z"/><path class="cls-1" d="M978.29,497c-.82,45-6.72,52.12-8.72,53.24-4.33.21-17.67-13.5-23.38-19.39-15.47-16-33-34.05-52.33-23.87-20.63,10.87-19.63,48-18.49,91.06l0,.32c.16,6.27.33,12.63.42,18.88a43,43,0,0,1-26.35-39.64V486.27a43,43,0,0,1,43-43h85c.07,3.12.16,6.48.26,10l0,.36C978.1,466.47,978.55,482.41,978.29,497Z"/><path class="cls-1" d="M1026.76,486.27v91.35a43,43,0,0,1-43,43H901.42c-.07-7.58-.29-15.32-.49-22.91l0-.26c-.38-14.28-.81-30.47,0-44.1,1.06-18.47,4-22.75,4.71-23.56,4.46.53,16.89,13.34,22.26,18.89,15.5,16,33.07,34.11,52.67,24.69,20.41-9.83,22.71-42.87,23.31-75.86.29-15.24-.17-31.52-.55-44.63v-.26c0-1.61-.09-3.18-.13-4.7A42.94,42.94,0,0,1,1026.76,486.27Z"/></g></svg>