<svg xmlns="http://www.w3.org/2000/svg" viewBox="0 0 1080 1080"><defs><style>.cls-1{fill:#eaeaea;}</style></defs><g id="Capa_6" data-name="Capa 6"><path class="cls-1" d="M183.4,516.86c-.86,29.29-3.06,56-20.37,61.85-16.28,5.48-29.67-11.35-42.65-27.62-4.53-5.72-13.73-17.26-17.77-19-4.5,6-4,40.73-3.82,55.8v.24c.16,11.06.32,22.47-.06,32.95a10,10,0,0,1-4.25,8v0a9.83,9.83,0,0,1-5.58,1.72,9.13,9.13,0,0,1-1.94-.2,12,12,0,0,1-9.54-12c.34-9.86.18-20.95,0-31.69v-.44c-.54-38.36-1-68.67,16.56-75.37,16.07-6.17,30.08,11.4,42.42,26.89,4.48,5.62,14.81,18.59,18.81,19.69,1.32-1,5.76-7.13,6.82-43.14.36-12.39.16-26,0-36.88-.08-5-.14-9.54-.16-13.38a10.21,10.21,0,0,1,3.43-7.79,9.83,9.83,0,0,1,7.94-2.24,12,12,0,0,1,10,11.67c0,3.78.08,8.18.16,13v.22C183.58,490.19,183.78,504,183.4,516.86Z"/><path class="cls-1" d="M199.52,509.08a36.24,36.24,0,0,1,13.38-14.7,35.68,35.68,0,0,1,18.89-5.14,33.21,33.21,0,0,1,16,3.68,32.41,32.41,0,0,1,10.95,9.26V490.56h20.73V572H258.69V560.09a30.71,30.71,0,0,1-10.95,9.48,33.51,33.51,0,0,1-16.1,3.75A34.57,34.57,0,0,1,212.9,568a37.06,37.06,0,0,1-13.38-14.92A47.94,47.94,0,0,1,194.6,531,47.2,47.2,0,0,1,199.52,509.08Zm56.23,9.34a20.72,20.72,0,0,0-7.94-8.23,21.23,21.23,0,0,0-10.73-2.87,20.84,20.84,0,0,0-10.58,2.79,21.12,21.12,0,0,0-7.87,8.16,25.57,25.57,0,0,0-3,12.72,26.39,26.39,0,0,0,3,12.86,21.76,21.76,0,0,0,7.94,8.45,20.17,20.17,0,0,0,10.51,2.94,21.13,21.13,0,0,0,10.73-2.87,20.72,20.72,0,0,0,7.94-8.23,29.6,29.6,0,0,0,0-25.72Z"/><path class="cls-1" d="M331.08,493A33.19,33.19,0,0,1,347,489.24a35.71,35.71,0,0,1,18.89,5.14A36.37,36.37,0,0,1,379.3,509a47.07,47.07,0,0,1,4.92,22,47.94,47.94,0,0,1-4.92,22.12A37.13,37.13,0,0,1,365.92,568,34.86,34.86,0,0,1,347,573.32a33,33,0,0,1-15.8-3.67,33.9,33.9,0,0,1-11.1-9.26V610.8H299.55V490.56h20.58v11.76A31.37,31.37,0,0,1,331.08,493Zm29.11,25.28a21,21,0,0,0-7.94-8.16,21.29,21.29,0,0,0-10.66-2.79,20.57,20.57,0,0,0-10.51,2.87,21.33,21.33,0,0,0-7.94,8.3,28.68,28.68,0,0,0,0,25.58,21.26,21.26,0,0,0,7.94,8.3,20.74,20.74,0,0,0,21.17-.07,21.83,21.83,0,0,0,7.94-8.38,26.37,26.37,0,0,0,3-12.93A25.68,25.68,0,0,0,360.19,518.27Z"/><path class="cls-1" d="M398.85,509.08a36.22,36.22,0,0,1,13.37-14.7,35.71,35.71,0,0,1,18.89-5.14,33.18,33.18,0,0,1,15.95,3.68A32.22,32.22,0,0,1,458,502.18V490.56h20.73V572H458V560.09a30.62,30.62,0,0,1-10.95,9.48,33.49,33.49,0,0,1-16.1,3.75A34.59,34.59,0,0,1,412.22,568a37,37,0,0,1-13.37-14.92A47.82,47.82,0,0,1,393.92,531,47.08,47.08,0,0,1,398.85,509.08Zm56.22,9.34a20.72,20.72,0,0,0-7.94-8.23,21.2,21.2,0,0,0-10.73-2.87,20.84,20.84,0,0,0-10.58,2.79,21.09,21.09,0,0,0-7.86,8.16,25.57,25.57,0,0,0-3,12.72,26.39,26.39,0,0,0,3,12.86,21.66,21.66,0,0,0,7.93,8.45,20.19,20.19,0,0,0,10.51,2.94,21.1,21.1,0,0,0,10.73-2.87,20.72,20.72,0,0,0,7.94-8.23,29.6,29.6,0,0,0,0-25.72Z"/><path class="cls-1" d="M532.83,553l20.58-62.48h21.9L545.18,572h-25l-30-81.44h22.05Z"/><path class="cls-1" d="M588.32,477.41a12.07,12.07,0,0,1,0-17.2,13.54,13.54,0,0,1,18.08,0,12.07,12.07,0,0,1,0,17.2,13.57,13.57,0,0,1-18.08,0Zm19.18,13.15V572H586.92V490.56Z"/><path class="cls-1" d="M692,469.54v10.88H664.1V572H650.72V480.42H622.65V469.54Z"/><path class="cls-1" d="M731.93,493.8q6.54-3.82,16-3.82v13.81h-3.53q-22.49,0-22.49,24.4V572H708.49V491.44h13.37v13.09A25.7,25.7,0,0,1,731.93,493.8Z"/><path class="cls-1" d="M834.75,491.44V572H821.38V560.09a26,26,0,0,1-10.66,9.63,33,33,0,0,1-15.07,3.45,36.07,36.07,0,0,1-16.9-3.89,28.29,28.29,0,0,1-11.83-11.69q-4.35-7.79-4.34-19V491.44h13.23v45.43q0,11.89,6,18.3t16.46,6.39q10.73,0,16.9-6.61t6.18-19.26V491.44Z"/><path class="cls-1" d="M857.39,509.75a35.89,35.89,0,0,1,13.89-14.48,39.93,39.93,0,0,1,20.36-5.15q14.85,0,24.48,7.2t12.71,20h-14.4a20.81,20.81,0,0,0-8-11.62q-6-4.26-14.78-4.26-11.46,0-18.52,7.86t-7.06,22.27q0,14.56,7.06,22.49T891.64,562q8.82,0,14.7-4.11a20.92,20.92,0,0,0,8.09-11.76h14.4A35.49,35.49,0,0,1,915.9,565.9q-9.71,7.43-24.26,7.42a39.93,39.93,0,0,1-20.36-5.14,35.79,35.79,0,0,1-13.89-14.56q-5-9.4-5-22Q852.39,519.09,857.39,509.75Z"/><path class="cls-1" d="M991.6,572,960,536.43V572H946.62V463.22H960v63.94l31-35.72h18.67l-37.93,40.13L1009.82,572Z"/></g></svg>