<svg xmlns="http://www.w3.org/2000/svg" viewBox="0 0 1080 1080"><defs><style>.cls-1{fill:#0e2244;}</style></defs><g id="Capa_10" data-name="Capa 10"><path class="cls-1" d="M294.65,433.51c-1.25,43.59-4.53,83.4-30.32,92.09-24.23,8.15-44.16-16.9-63.47-41.12l-.18-.24c-6.73-8.42-20.32-25.47-26.28-28.12-6.72,9-6,60.73-5.68,83.2.24,15.83.48,33.56-.06,49.27a14.85,14.85,0,0,1-6.42,12,14,14,0,0,1-8.19,2.53,14.75,14.75,0,0,1-3-.3,17.8,17.8,0,0,1-14.14-17.91c.48-14.22.27-30.29.09-45.82l0-2.08c-.77-57.05-1.4-102.1,24.67-112.06,23.86-9.17,44.69,16.9,63.08,39.93,6.73,8.45,22.11,27.76,28.06,29.4,2.32-1.7,8.57-11.31,10.12-64.22.53-17.79.27-37.43,0-53.2l0-1.72c-.12-7.35-.21-14.11-.24-19.88a15.11,15.11,0,0,1,5.12-11.61,14.55,14.55,0,0,1,11.87-3.33,17.83,17.83,0,0,1,14.76,17.41c0,5.59.12,12.23.24,19.43C294.94,395.54,295.18,415.09,294.65,433.51Z"/><path class="cls-1" d="M318.65,422a53.7,53.7,0,0,1,19.91-21.88,53,53,0,0,1,28.12-7.66q13.56,0,23.73,5.47a48.12,48.12,0,0,1,16.3,13.78V394.38h30.85V515.59H406.71V497.87A45.56,45.56,0,0,1,390.41,512a49.82,49.82,0,0,1-24,5.58,51.54,51.54,0,0,1-27.9-7.88,55.09,55.09,0,0,1-19.91-22.21q-7.33-14.33-7.33-32.93Q311.32,436.17,318.65,422Zm83.69,13.89a30.87,30.87,0,0,0-11.82-12.25,31.52,31.52,0,0,0-16-4.27,31,31,0,0,0-15.75,4.16,31.35,31.35,0,0,0-11.71,12.14q-4.48,8-4.48,18.92a39.3,39.3,0,0,0,4.48,19.15,32.29,32.29,0,0,0,11.82,12.58,30,30,0,0,0,15.64,4.38,31.62,31.62,0,0,0,16-4.27,30.87,30.87,0,0,0,11.82-12.25q4.37-8,4.37-19.15T402.34,435.84Z"/><path class="cls-1" d="M514.47,398a49.37,49.37,0,0,1,23.74-5.58,53,53,0,0,1,28.11,7.66,53.84,53.84,0,0,1,19.91,21.77q7.34,14.1,7.33,32.7t-7.33,32.93a55.09,55.09,0,0,1-19.91,22.21,51.91,51.91,0,0,1-28.11,7.88,49,49,0,0,1-23.52-5.47,50.36,50.36,0,0,1-16.52-13.79v75.05H467.54v-179h30.63v17.5A46.54,46.54,0,0,1,514.47,398Zm43.32,37.63A31,31,0,0,0,546,423.48a31.63,31.63,0,0,0-15.86-4.16,30.52,30.52,0,0,0-15.64,4.27A31.6,31.6,0,0,0,502.65,436a42.68,42.68,0,0,0,0,38.07,31.6,31.6,0,0,0,11.82,12.36,30.84,30.84,0,0,0,31.5-.11,32.46,32.46,0,0,0,11.82-12.47q4.49-8.1,4.48-19.26Q562.27,443.61,557.79,435.62Z"/><path class="cls-1" d="M615.33,422a53.63,53.63,0,0,1,19.91-21.88,53,53,0,0,1,28.11-7.66q13.57,0,23.74,5.47a48.12,48.12,0,0,1,16.3,13.78V394.38h30.85V515.59H703.39V497.87A45.65,45.65,0,0,1,687.09,512a49.85,49.85,0,0,1-24,5.58,51.52,51.52,0,0,1-27.9-7.88,55,55,0,0,1-19.91-22.21Q608,473.15,608,454.54,608,436.17,615.33,422ZM699,435.84a30.87,30.87,0,0,0-11.82-12.25,31.52,31.52,0,0,0-16-4.27,30.79,30.79,0,0,0-27.46,16.3q-4.49,8-4.48,18.92a39.3,39.3,0,0,0,4.48,19.15,32.29,32.29,0,0,0,11.82,12.58,30,30,0,0,0,15.64,4.38,31.62,31.62,0,0,0,16-4.27A30.87,30.87,0,0,0,699,474.13q4.37-8,4.37-19.15T699,435.84Z"/><path class="cls-1" d="M814.76,487.36l30.63-93H878L833.13,515.59H795.94L751.31,394.38h32.82Z"/><path class="cls-1" d="M897.35,374.8a18,18,0,0,1,0-25.6,20.18,20.18,0,0,1,26.91,0,18,18,0,0,1,0,25.6,20.18,20.18,0,0,1-26.91,0Zm28.55,19.58V515.59H895.27V394.38Z"/><path class="cls-1" d="M597.5,551.08V562.8H567.43v98.61H553V562.8H522.79V551.08Z"/><path class="cls-1" d="M640.48,577.2q7-4.11,17.17-4.12V588h-3.8q-24.21,0-24.21,26.28v47.17H615.23V574.67h14.41v14.09A27.63,27.63,0,0,1,640.48,577.2Z"/><path class="cls-1" d="M751.21,574.67v86.74H736.8V648.59A28.09,28.09,0,0,1,725.32,659a35.41,35.41,0,0,1-16.22,3.72,39,39,0,0,1-18.21-4.19,30.48,30.48,0,0,1-12.74-12.59q-4.67-8.39-4.67-20.42V574.67h14.25v48.91q0,12.82,6.49,19.71T712,650.17q11.55,0,18.2-7.12t6.65-20.74V574.67Z"/><path class="cls-1" d="M775.58,594.38a38.84,38.84,0,0,1,15-15.6,43,43,0,0,1,21.93-5.54q16,0,26.35,7.76t13.69,21.53H837A22.26,22.26,0,0,0,828.37,590q-6.4-4.59-15.9-4.59-12.36,0-20,8.47t-7.6,24q0,15.68,7.6,24.22t20,8.55q9.49,0,15.82-4.43A22.49,22.49,0,0,0,837,633.55h15.51a38.07,38.07,0,0,1-13.93,21.29q-10.44,8-26.11,8a43,43,0,0,1-21.93-5.54,38.64,38.64,0,0,1-15-15.67q-5.39-10.14-5.38-23.75Q770.2,604.42,775.58,594.38Z"/><path class="cls-1" d="M920.11,661.41l-34-38.3v38.3h-14.4V544.27h14.4v68.86l33.4-38.46h20.11l-40.84,43.21,41,43.53Z"/></g></svg>