<svg xmlns="http://www.w3.org/2000/svg" viewBox="0 0 1080 1080"><defs><style>.cls-1{fill:#0e2244;}</style></defs><g id="Capa_15" data-name="Capa 15"><path class="cls-1" d="M435.09,627.15v13.37H400.74V753.16H384.29V640.52H349.76V627.15Z"/><path class="cls-1" d="M484.17,657q8-4.71,19.62-4.71v17h-4.34q-27.66,0-27.66,30v53.88H455.34V654.08h16.45v16.09A31.54,31.54,0,0,1,484.17,657Z"/><path class="cls-1" d="M610.63,654.08v99.08H594.18V738.51a32,32,0,0,1-13.11,11.84,40.5,40.5,0,0,1-18.53,4.25,44.36,44.36,0,0,1-20.79-4.79,34.73,34.73,0,0,1-14.55-14.37q-5.34-9.59-5.34-23.32v-58h16.27V710q0,14.64,7.42,22.51t20.25,7.86q13.19,0,20.79-8.14t7.59-23.68V654.08Z"/><path class="cls-1" d="M638.47,676.59a44.24,44.24,0,0,1,17.09-17.81,49.17,49.17,0,0,1,25-6.32q18.25,0,30.1,8.85t15.64,24.59H708.62a25.49,25.49,0,0,0-9.85-14.28q-7.32-5.25-18.17-5.24-14.1,0-22.78,9.67t-8.68,27.39q0,17.89,8.68,27.66t22.78,9.76q10.85,0,18.08-5.06a25.64,25.64,0,0,0,9.94-14.46h17.72a43.57,43.57,0,0,1-15.91,24.31q-11.94,9.14-29.83,9.13a49.07,49.07,0,0,1-25-6.32,44.09,44.09,0,0,1-17.09-17.9q-6.13-11.56-6.14-27.12Q632.33,688.08,638.47,676.59Z"/><path class="cls-1" d="M803.54,753.16,764.67,709.4v43.76H748.21V619.37h16.46V698l38.14-43.94h23l-46.64,49.36L826,753.16Z"/><path class="cls-1" d="M599.46,428.11C596.78,519.19,589.82,609.57,538,627a54,54,0,0,1-17.36,2.9c-40.89,0-78.33-47-114.7-92.67-20.5-25.74-58.66-73.64-71.67-68.65-4.23,1.62-14.51,11.73-18.69,70.3-2.82,39.48-2.16,87.18-1.57,129.28v.74c.52,37.12,1.06,75.53-.17,110.66a23.2,23.2,0,0,1-9.76,18.64,22.45,22.45,0,0,1-12.76,3.91,24.91,24.91,0,0,1-4.58-.44c-13.62-2.56-23.92-15.61-23.43-29.73,1.18-33.63.64-71.4.15-107.94l0-1c-1.64-120.28-3.07-224.13,49-244.12,46.91-18,89.62,35.57,130.9,87.4,22.45,28.18,60,75.32,74.57,70.42,6.05-2,17.29-13.08,24.54-64.17,4.77-33.73,5.88-71.45,6.47-91.74,1.23-41.92.54-87.82,0-124.7-.24-16.6-.49-32.09-.51-45.15a23.71,23.71,0,0,1,7.92-18.19,22.29,22.29,0,0,1,18.19-5.09c13.65,2,24.39,14.7,24.44,28.86.05,13.06.29,28.94.52,44.29C600,338.22,600.71,384.84,599.46,428.11Z"/></g></svg>