<svg xmlns="http://www.w3.org/2000/svg" viewBox="0 0 1080 1080"><g id="Capa_7" data-name="Capa 7"><path d="M519.26,615.84c-126.67,0-229.74-103.06-229.74-229.74a16.91,16.91,0,1,1,33.82,0c0,108,87.89,195.92,195.92,195.92S715.18,494.13,715.18,386.1a16.91,16.91,0,1,1,33.82,0C749,512.78,645.94,615.84,519.26,615.84Z"/><path d="M519.26,525.62c-76.92,0-139.51-62.59-139.51-139.52a16.91,16.91,0,1,1,33.82,0,105.7,105.7,0,1,0,211.39,0,16.91,16.91,0,0,1,33.82,0C658.78,463,596.19,525.62,519.26,525.62Z"/><path d="M519.26,709.84c-178.5,0-323.73-145.23-323.73-323.74a16.91,16.91,0,1,1,33.82,0C229.35,546,359.41,676,519.26,676S809.18,546,809.18,386.1a16.91,16.91,0,1,1,33.82,0C843,564.61,697.77,709.84,519.26,709.84Z"/></g></svg>