<svg xmlns="http://www.w3.org/2000/svg" viewBox="0 0 1080 1080"><g id="Capa_5" data-name="Capa 5"><path d="M747.91,274.92v520a5.62,5.62,0,0,1-5.62,5.62H338.69a5.63,5.63,0,0,1-5.63-5.62v-373c13.7-135,121.35-242.7,256.35-256.45h49.06A131,131,0,0,1,747.91,274.92Z"/><path d="M747.91,274.92A130.6,130.6,0,0,0,618.73,164a286.92,286.92,0,0,0-29.32,1.49c-135,13.75-242.65,121.43-256.35,256.45a288,288,0,0,0-1.48,29.22V783.75A18.27,18.27,0,0,0,349.82,802H731.15a18.06,18.06,0,0,0,7.21-1.49,18.24,18.24,0,0,0,11-16.76V294.65A130.9,130.9,0,0,0,747.91,274.92Zm-1.49,508.83A15.29,15.29,0,0,1,731.15,799H349.82a15.28,15.28,0,0,1-15.26-15.27V451.14C334.56,294.44,462,167,618.73,167A127.83,127.83,0,0,1,746.42,294.65Z"/></g></svg>