<svg xmlns="http://www.w3.org/2000/svg" viewBox="0 0 1080 1080"><g id="Capa_6" data-name="Capa 6"><path d="M735.86,634a94.07,94.07,0,0,1-89.75-67.11c-2.9-9.85-4.3-19.3-5.53-27.64-2.3-15.62-4-26.91-13.31-37.58a58.57,58.57,0,0,0-43.49-19.75c-12.32,0-49.83,0-58.94,68.64C518.42,598.91,479.25,634,431.7,634h0A94,94,0,0,1,340,559.16c-1.3-6.28-2.18-12.17-3-17.88-2.54-16.92-4.38-29.14-14.55-40.36a57.76,57.76,0,0,0-100.58,38.76,18.28,18.28,0,1,1-36.56,0,94.32,94.32,0,0,1,164.24-63.31c17.58,19.41,20.64,39.78,23.6,59.48.79,5.22,1.6,10.63,2.69,15.93a57.32,57.32,0,0,0,55.87,45.66c29,0,52.92-21.74,56.9-51.69C497.19,481,531,445.36,583.78,445.36a94.35,94.35,0,0,1,71,32.23c16.43,18.77,19.37,38.72,22,56.32,1.16,7.85,2.25,15.26,4.43,22.65a57.44,57.44,0,0,0,112.44-16.88,18.28,18.28,0,0,1,36.56,0A94.42,94.42,0,0,1,735.86,634Z"/></g></svg>