<svg xmlns="http://www.w3.org/2000/svg" viewBox="0 0 1080 1080"><g id="Capa_3" data-name="Capa 3"><path d="M671.64,342.88H315a97.07,97.07,0,0,0-76.72,76.75V660.38A97.09,97.09,0,0,0,315,737.13H670.45c88.89-11.81,159.47-82.38,171.31-171.26V513C830,424.74,759.89,354.66,671.64,342.88ZM644,735.38H333.32A93.45,93.45,0,0,1,240,642.05V438a93.45,93.45,0,0,1,93.34-93.34H645.25C752.64,344.62,840,432,840,539.39,840,647.46,752.09,735.38,644,735.38Z"/><path d="M841.76,513C830,424.74,759.89,354.66,671.64,342.88a198.26,198.26,0,0,0-26.39-1.76H333.32A95.84,95.84,0,0,0,315,342.88,96.77,96.77,0,0,0,236.49,438V642.05a96.83,96.83,0,0,0,96.83,96.83H644a200.45,200.45,0,0,0,26.43-1.75c88.89-11.81,159.47-82.38,171.31-171.26a200.61,200.61,0,0,0,0-52.88ZM644,735.38H333.32A93.45,93.45,0,0,1,240,642.05V438a93.45,93.45,0,0,1,93.34-93.34H645.25C752.64,344.62,840,432,840,539.39,840,647.46,752.09,735.38,644,735.38Z"/><path d="M840,539.39c0,108.07-87.92,196-196,196H333.32A93.45,93.45,0,0,1,240,642.05V438a93.45,93.45,0,0,1,93.34-93.34H645.25C752.64,344.62,840,432,840,539.39Z"/></g></svg>